<?xml version="1.0" encoding="UTF-8"?>
<svg width="18px" height="17px" viewBox="0 0 18 17" version="1.1" xmlns="http://www.w3.org/2000/svg" xmlns:xlink="http://www.w3.org/1999/xlink">
    <!-- Generator: Sketch 50.2 (55047) - http://www.bohemiancoding.com/sketch -->
    <title>Combined Shape</title>
    <desc>Created with Sketch.</desc>
    <defs></defs>
    <g id="lēmumi-edited" stroke="none" stroke-width="1" fill="none" fill-rule="evenodd">
        <g id="new-step8" transform="translate(-150.000000, -214.000000)" fill="#7E8791" fill-rule="nonzero">
            <path d="M162.808324,224.894111 L167.181981,229.267767 L165.767767,230.681981 L161.465431,226.379645 C159.524162,227.987577 156.778286,228.494127 154.287445,227.465472 C151.211149,226.166239 149.477218,222.884862 150.140613,219.617796 C150.804007,216.35073 153.681211,214.001745 157.021676,214.00001 C157.960758,213.998455 158.890501,214.185998 159.755249,214.551413 C163.299147,216.076461 164.946436,220.168933 163.444375,223.716557 C163.266798,224.135963 163.053069,224.529182 162.808324,224.894111 Z M157.021676,215.463098 C153.952541,215.463098 151.464516,217.945907 151.464516,221.008607 C151.464516,224.071307 153.952541,226.554115 157.021676,226.554115 C160.09081,226.554115 162.578836,224.071307 162.578836,221.008607 C162.578836,217.945907 160.09081,215.463098 157.021676,215.463098 Z" id="Combined-Shape"></path>
        </g>
    </g>
</svg>